{
    "asset" : {
        "generator" : "Khronos glTF Blender I/O v1.1.46",
        "version" : "2.0"
    },
    "scene" : 0,
    "scenes" : [
        {
            "extras" : {
                "skinify" : {
                    "connect_mesh" : 0,
                    "connect_parents" : 0,
                    "generate_all" : 0,
                    "thickness" : 0.800000011920929,
                    "finger_thickness" : 0.25,
                    "apply_mod" : 1,
                    "parent_armature" : 1,
                    "sub_level" : 1
                },
                "glTF2ExportSettings" : {
                    "export_apply" : 1,
                    "export_extras" : 1,
                    "export_format" : "GLTF_EMBEDDED",
                    "export_lights" : 0,
                    "export_selected" : 1
                },
                "v3d" : {}
            },
            "name" : "Scene",
            "nodes" : [
                0
            ]
        }
    ],
    "nodes" : [
        {
            "extras" : {},
            "mesh" : 0,
            "name" : "Coffee",
            "rotation" : [
                0.16431556642055511,
                0,
                0,
                0.9864078164100647
            ],
            "scale" : [
                2.374985456466675,
                2.374985694885254,
                2.374985694885254
            ],
            "translation" : [
                -1.6914310455322266,
                1.73662269115448,
                0.7766539454460144
            ]
        }
    ],
    "materials" : [
        {
            "doubleSided" : true,
            "emissiveFactor" : [
                0,
                0,
                0
            ],
            "extras" : {
                "v3d" : {
                    "gltf_compat" : 1,
                    "render_side" : 2
                }
            },
            "name" : "Material.004",
            "pbrMetallicRoughness" : {
                "metallicFactor" : 0
            }
        },
        {
            "doubleSided" : true,
            "emissiveFactor" : [
                0,
                0,
                0
            ],
            "extras" : {},
            "name" : "Material.002",
            "pbrMetallicRoughness" : {
                "baseColorFactor" : [
                    0,
                    0,
                    0,
                    1
                ],
                "metallicFactor" : 0,
                "roughnessFactor" : 0.469072163105011
            }
        }
    ],
    "meshes" : [
        {
            "extras" : {
                "v3d" : {}
            },
            "name" : "Circle.004",
            "primitives" : [
                {
                    "attributes" : {
                        "POSITION" : 0,
                        "NORMAL" : 1,
                        "TEXCOORD_0" : 2
                    },
                    "indices" : 3,
                    "material" : 0
                },
                {
                    "attributes" : {
                        "POSITION" : 4,
                        "NORMAL" : 5,
                        "TEXCOORD_0" : 6
                    },
                    "indices" : 7,
                    "material" : 1
                }
            ]
        }
    ],
    "accessors" : [
        {
            "bufferView" : 0,
            "componentType" : 5126,
            "count" : 9593,
            "max" : [
                2.1350624561309814,
                2.0071139335632324,
                1.0782527923583984
            ],
            "min" : [
                -1.0782527923583984,
                -2.0644614551201812e-07,
                -1.0782527923583984
            ],
            "type" : "VEC3"
        },
        {
            "bufferView" : 1,
            "componentType" : 5126,
            "count" : 9593,
            "type" : "VEC3"
        },
        {
            "bufferView" : 2,
            "componentType" : 5126,
            "count" : 9593,
            "type" : "VEC2"
        },
        {
            "bufferView" : 3,
            "componentType" : 5123,
            "count" : 57024,
            "type" : "SCALAR"
        },
        {
            "bufferView" : 4,
            "componentType" : 5126,
            "count" : 1729,
            "max" : [
                0.8221701383590698,
                1.8175606727600098,
                0.8221700191497803
            ],
            "min" : [
                -0.8221701383590698,
                1.8080217838287354,
                -0.8221702575683594
            ],
            "type" : "VEC3"
        },
        {
            "bufferView" : 5,
            "componentType" : 5126,
            "count" : 1729,
            "type" : "VEC3"
        },
        {
            "bufferView" : 6,
            "componentType" : 5126,
            "count" : 1729,
            "type" : "VEC2"
        },
        {
            "bufferView" : 7,
            "componentType" : 5123,
            "count" : 9984,
            "type" : "SCALAR"
        }
    ],
    "bufferViews" : [
        {
            "buffer" : 0,
            "byteLength" : 115116,
            "byteOffset" : 0
        },
        {
            "buffer" : 0,
            "byteLength" : 115116,
            "byteOffset" : 115116
        },
        {
            "buffer" : 0,
            "byteLength" : 76744,
            "byteOffset" : 230232
        },
        {
            "buffer" : 0,
            "byteLength" : 114048,
            "byteOffset" : 306976
        },
        {
            "buffer" : 0,
            "byteLength" : 20748,
            "byteOffset" : 421024
        },
        {
            "buffer" : 0,
            "byteLength" : 20748,
            "byteOffset" : 441772
        },
        {
            "buffer" : 0,
            "byteLength" : 13832,
            "byteOffset" : 462520
        },
        {
            "buffer" : 0,
            "byteLength" : 19968,
            "byteOffset" : 476352
        }
    ],
    "buffers" : [
        {
            "byteLength" : 496320,
            "uri" : "data:application/octet-stream;base64,"
        }
    ]
}
