<svg xmlns="http://www.w3.org/2000/svg" viewBox="0 0 416.43 372.22"><g id="Layer_2" data-name="Layer 2"><g id="Layer_1-2" data-name="Layer 1"><path d="M207.8,372q-100,0-200-.07c-3,0-7.95,1.84-7.81-4,.13-5.39,4.79-3.56,7.7-3.58,20.83-.14,41.67-.19,62.5,0,4.39,0,5.7-1.27,5.68-5.67-.15-41.5.2-83-.24-124.49-.15-14.63,10.76-25.44,24.22-24a58.54,58.54,0,0,0,6.49,0,3.4,3.4,0,0,0,3.45-2.3c6.06-13.73,17.52-22.14,29.66-29.84a93.57,93.57,0,0,1,9.14-5.07c2.36-1.15,3.24-2.34,1.91-5C142.44,152,139.14,134.91,139.82,117c.13-3.45-.39-5.22-4.5-6.66-11.58-4.07-16.6-12.45-17.26-22.77-.65-10.13,7-19.69,17.32-23.08,2.29-.75,3.18-1.67,3.45-4,3.47-30,22.27-51.95,51.78-58.26,19.53-4.17,39-2.95,56.7,8.08,18.26,11.38,28.34,28,31.09,49.11.36,2.75.77,4.26,3.91,5.23,9.63,3,16.94,13,17.12,22.37.19,9.68-7.3,19.9-17.5,23.12-3.52,1.11-4.66,2.79-4.49,6.35a103.29,103.29,0,0,1-10.65,51.59c-1.3,2.61-.55,3.85,1.87,5,10,4.68,18.83,11.18,27.1,18.39A44.7,44.7,0,0,1,307.07,207c1.2,2.7,2.75,3.33,5.32,3.31,3.82,0,7.77-.37,11.44.43,10.2,2.2,16.64,10.92,16.65,21.92q0,62.25,0,124.5c0,7.11,0,7.12,7.05,7.12h61c1.5,0,3,0,4.5.08a3.15,3.15,0,0,1,3.33,3c.28,2.15-.57,3.74-2.63,4.15a33.85,33.85,0,0,1-6.45.43Q307.56,372,207.8,372Zm0-7.7q59.22,0,118.45.07c3.92,0,5.6-.87,5.59-5.23-.14-43.32-.08-86.63-.11-130,0-5.18-2.81-8.74-7.76-10.18a29.4,29.4,0,0,0-8.36-1q-107.46,0-214.91,0c-1.16,0-2.34-.07-3.49,0-6.81.64-13,3.51-12.91,13.55.36,42.14.24,84.29,0,126.44,0,5.16,1.53,6.41,6.51,6.38C129.87,364.24,168.86,364.32,207.84,364.32Zm63-285.5c-.45-6.65.29-14.58-.85-22.58-2.88-20.11-20.4-39.92-40.07-45.34-9.72-2.68-19.48-1.69-29.23-1.83-25-.35-46.73,18.26-53.15,41.85-3.46,12.74-1.12,25.83-2.14,38.71-.68,8.52,1.67,14.27,9.34,18.76,10.92,6.39,21.11,12.58,34.72,7.22,11-4.32,22.85-5.13,34.16-.93,13.12,4.88,24.86,3.41,35.88-5.11,2.48-1.92,5.13-3.64,7.77-5.34a7.41,7.41,0,0,0,3.62-7.12C270.65,91.45,270.79,85.78,270.79,78.82ZM208.2,210.32q43.23,0,86.46,0c1.74,0,4.22,1,5.1-.76.95-1.86-.93-3.66-2.09-5.24-8.6-11.75-21.06-18.47-33.29-25.49-2.09-1.21-4-.84-5.23,1.11-2.67,4.11-6.28,7.37-9.86,10.54-15.33,13.58-33.15,19.09-53.39,15-14-2.84-25.33-10.3-34.94-20.79-6.43-7-6.72-7-15-2.41C135.53,187.92,126.17,195,119,204.67c-1.08,1.45-2.93,3.07-2.26,4.72.81,2,3.27.88,5,.88Q165,210.38,208.2,210.32Zm.23-91.25c-5-.14-10-.26-14.81,1.34-4.12,1.36-7.76,3.24-8.4,8.11-.61,4.71,2,7.94,5.52,10.4,8.47,5.94,26.2,6,34.75,0,3.53-2.44,6.15-5.69,5.58-10.37-.58-4.86-4.21-6.78-8.34-8.15C218.06,118.88,213.25,118.89,208.43,119.07Zm-70.65-30.8c0-4.66,0-9.32,0-14,0-1.74,0-3.47-2.78-2.55-5.28,1.76-10.18,8.7-10.47,15.18-.3,6.65,4,14,9.6,16.18,2.2.85,3.85.88,3.71-2.35C137.65,96.59,137.78,92.43,137.78,88.27Zm140.73-.21v13c0,2.32.57,3.44,3.28,2.37,5.2-2.05,9.78-8.42,10-14.38.26-7.19-3.61-13.78-9.35-16.26-2.54-1.09-3.88-.6-3.9,2.28C278.49,79.4,278.52,83.73,278.51,88.06Z"/><path d="M195.8,280.72c.09-6.4,6.09-12.39,12.39-12.36,6.7,0,12.44,6.3,12.3,13.45-.13,6.39-6.4,12.62-12.63,12.05S194.83,288.09,195.8,280.72Z"/><path d="M182.67,52.35h9.47c2.17,0,4.06.49,4.18,3.16.1,2.34-1.3,4.16-3.38,4.23C186,60,179,60,172,59.71c-2.18-.07-3.43-1.78-3.12-4.24.29-2.29,1.73-3.07,3.79-3.09,3.32,0,6.64,0,10,0Z"/><path d="M233.7,52.35h9.43c2.15,0,4,.48,4.19,3.13.13,2.33-1.27,4.17-3.32,4.25-6.93.27-13.89.27-20.81,0-2-.08-3.4-2-3.22-4.33s1.79-3,3.81-3c3.3,0,6.61,0,9.92,0Z"/><path d="M182.75,91c-4,0-7.83-3.47-7.85-7.28,0-3.63,3.57-7.19,7.41-7.33,3.57-.13,7.94,4,7.88,7.49A7.59,7.59,0,0,1,182.75,91Z"/><path d="M233.65,91a7.62,7.62,0,0,1-7.56-7c-.13-3.43,4.21-7.68,7.77-7.61,3.83.07,7.49,3.57,7.53,7.21C241.44,87.42,237.68,91,233.65,91Z"/><path d="M211.09,136.37c-6.08-.21-11.61-1.14-16.42-4.51-2-1.44-3.78-3.29-2.3-5.81,1.58-2.7,3.83-1.68,6-.33,6.49,4.05,13.31,5.08,20.39,1.66,2.5-1.21,4.22-.6,5.29,1.74s-.3,3.66-2.3,4.71C218.27,135.66,214.48,136.06,211.09,136.37Z"/></g></g></svg>