<?xml version="1.0" encoding="UTF-8"?><svg id="Layer_2" xmlns="http://www.w3.org/2000/svg" viewBox="0 0 142.2 310.03"><g id="Layer_1-2"><path d="m135.38,124.35c.26.03.52.06.79.06,3.32,0,6.02-2.7,6.02-6.02,0-3.05-2.27-5.57-5.21-5.96h0c-.22-.04-22.59-3.25-40.07-18.76-10.67-9.47-16.08-21.74-18.99-28.33-.27-.62-.52-1.18-.76-1.72v-8.23c3.13,3.18,6.96,6.88,11.63,11.28,16.96,15.97,34.91,25.17,41.84,28.39h0c.77.35,1.63.56,2.53.56,3.32,0,6.02-2.7,6.02-6.02,0-2.42-1.43-4.5-3.49-5.46h0c-4.05-1.88-12.17-5.98-21.56-12.47,7.03-.12,12.17-.9,14.77-1.32,3.2-.14,5.75-2.77,5.75-6.01s-2.7-6.02-6.02-6.02c-.11,0-.22.01-.34.02v-.08c-.27.04-.58.09-.96.15-2.65.43-8.84,1.43-17.47,1.21-5.15-.13-10.01-1.12-12.94-1.82-7.95-7.49-16.27-15.57-19.77-20.52v-8.28c1.23,1.41,2.51,2.77,3.85,4.05,4.95,4.71,10.63,8.58,16.87,11.49h0c.77.36,1.63.56,2.54.56,3.32,0,6.02-2.7,6.02-6.02,0-2.41-1.42-4.49-3.48-5.45h0c-5.06-2.37-9.66-5.5-13.66-9.31-5.36-5.1-9.63-11.48-12.38-18.47-.71-3.37-3.03-5.85-5.79-5.85s-5.08,2.48-5.79,5.85c-2.76,6.99-7.03,13.37-12.38,18.47-4.01,3.81-8.6,6.94-13.66,9.3l.04.08c-2.07.95-3.51,3.04-3.51,5.47,0,3.32,2.7,6.02,6.02,6.02,1.3,0,2.5-.42,3.48-1.12,5.87-2.86,11.23-6.56,15.93-11.03,1.35-1.28,2.62-2.65,3.85-4.05v8.76c-1.91,6.48-7.49,11.33-16.6,14.43-7.47,2.54-16.95,3.78-28.23,3.68h0c-3.25.1-5.86,2.76-5.86,6.03s2.55,5.87,5.75,6.01h0c.06,0,.12,0,.18,0,.03,0,.06,0,.09,0,.02,0,.05,0,.07,0,.32,0,.64,0,.96,0,6.38,0,12.28-.42,17.68-1.23-.9,1.1-1.83,2.18-2.81,3.19-3.38,3.5-7.17,6.42-11.27,8.69h0c-1.39.77-2.47,2.07-2.91,3.73-.85,3.21,1.06,6.51,4.28,7.36,1.56.41,3.14.17,4.45-.56h0s.06-.03.1-.05c0,0,.02-.01.03-.02,5.09-2.83,9.8-6.46,13.97-10.79,4.52-4.68,8.4-10.21,11.41-16.2,3.41-1.46,6.28-3.12,8.69-4.89v15.33c-.21.55-.42,1.14-.66,1.79-2.43,6.62-6.95,18.94-15.83,28.41-14.27,15.23-32.46,18.4-32.62,18.43l.04.24c-2.39.8-4.11,3.05-4.11,5.7,0,3.32,2.7,6.02,6.02,6.02.99,0,1.92-.24,2.75-.67,6.48-1.58,22.94-6.81,36.7-21.49,2.99-3.19,5.53-6.58,7.71-9.98v74.04c-1.05-1.4-2.19-2.77-3.44-4.11-13.07-13.94-29.4-16.69-30.09-16.8h0c-.31-.04-.63-.08-.95-.08-3.32,0-6.02,2.7-6.02,6.02,0,3,2.2,5.48,5.07,5.94h0c.13.03,12.93,2.18,23.21,13.15,6.35,6.77,9.62,15.68,11.37,20.47.32.86.59,1.6.85,2.26v18.53c-3.13-4.56-7.01-9.24-11.85-13.54-4.16-3.69-8.52-6.77-12.84-9.34-3.24-7.07-7.69-13.6-12.97-18.97-4.22-4.29-8.95-7.87-14.07-10.65-.01,0-.03-.02-.04-.02-.03-.02-.06-.03-.09-.05h0c-1.32-.71-2.9-.94-4.46-.51-3.21.88-5.09,4.2-4.21,7.4.45,1.65,1.55,2.94,2.94,3.69h0c4.12,2.23,7.93,5.11,11.35,8.58.46.47.9.95,1.35,1.44-7.59-2.45-12.94-3.2-13.42-3.26h0c-.26-.03-.52-.05-.79-.05-3.32,0-6.02,2.7-6.02,6.02,0,3.05,2.27,5.57,5.21,5.96h0c.22.04,22.59,3.25,40.07,18.76,10.68,9.48,16.08,21.74,18.99,28.33.31.7.59,1.33.86,1.92v8.13c-3.15-3.2-7-6.93-11.72-11.37-16.97-15.97-34.92-25.17-41.84-28.39h0c-.77-.35-1.63-.56-2.53-.56-3.32,0-6.02,2.7-6.02,6.02,0,2.42,1.43,4.5,3.49,5.46h0c4.05,1.88,12.17,5.98,21.56,12.47-7.03.12-12.17.9-14.77,1.32-3.2.14-5.75,2.77-5.75,6.01s2.7,6.02,6.02,6.02c.11,0,.22-.01.34-.02v.08c.27-.04.59-.09.97-.15,2.65-.43,8.85-1.42,17.47-1.21,5.16.13,10.01,1.12,12.94,1.82,8.03,7.56,16.43,15.72,19.87,20.66v8.25c-1.26-1.44-2.57-2.84-3.95-4.16-4.95-4.71-10.63-8.58-16.87-11.49h0c-.77-.36-1.63-.56-2.54-.56-3.32,0-6.02,2.7-6.02,6.02,0,2.41,1.42,4.49,3.48,5.45h0c5.06,2.36,9.65,5.49,13.66,9.31,5.34,5.08,9.6,11.45,12.36,18.42.54,3.68,2.98,6.46,5.9,6.46,3.09,0,5.63-3.09,5.98-7.08,2.76-6.73,6.92-12.87,12.11-17.8,4.01-3.81,8.6-6.94,13.66-9.3l-.04-.08c2.07-.95,3.51-3.04,3.51-5.47,0-3.32-2.7-6.02-6.02-6.02-1.3,0-2.5.42-3.48,1.12-5.87,2.86-11.23,6.56-15.93,11.03-1.31,1.25-2.56,2.58-3.76,3.95v-8.94c1.99-6.33,7.53-11.09,16.51-14.14,7.46-2.54,16.96-3.79,28.23-3.68h0c3.25-.1,5.86-2.76,5.86-6.03s-2.55-5.87-5.75-6.01h0s-.09,0-.14,0c-.04,0-.08,0-.12,0-.06,0-.11,0-.16,0-6.71-.04-12.9.38-18.56,1.22.9-1.11,1.84-2.18,2.82-3.19,3.38-3.5,7.17-6.42,11.27-8.69h0c1.39-.77,2.47-2.07,2.91-3.73.85-3.21-1.06-6.51-4.28-7.36-1.56-.41-3.14-.17-4.45.56h0s-.06.03-.1.05c0,0-.02.01-.03.02-5.09,2.83-9.8,6.46-13.98,10.79-4.51,4.67-8.39,10.21-11.41,16.2-3.36,1.44-6.2,3.08-8.6,4.82v-15.5c.18-.48.37-.99.57-1.54,2.43-6.62,6.95-18.94,15.83-28.41,14.27-15.23,32.46-18.4,32.62-18.43l-.04-.24c2.38-.8,4.11-3.05,4.11-5.7,0-3.32-2.7-6.02-6.02-6.02-.99,0-1.92.24-2.75.67-6.48,1.58-22.94,6.81-36.7,21.49-2.95,3.14-5.45,6.49-7.61,9.83v-73.78c1.03,1.35,2.13,2.69,3.34,3.98,13.07,13.94,29.4,16.69,30.09,16.8h0c.31.04.63.08.95.08,3.32,0,6.02-2.7,6.02-6.02,0-3-2.2-5.48-5.07-5.94h0c-.13-.03-12.93-2.18-23.21-13.15-6.34-6.77-9.61-15.68-11.37-20.46-.28-.76-.53-1.43-.76-2.02v-18.62c3.11,4.51,6.96,9.14,11.76,13.4,4.16,3.69,8.52,6.77,12.84,9.34,3.24,7.07,7.69,13.6,12.97,18.97,4.22,4.28,8.95,7.86,14.07,10.65.02,0,.03.02.05.03.03.02.06.03.09.05h0c1.32.71,2.9.94,4.46.51,3.21-.88,5.09-4.2,4.21-7.4-.45-1.65-1.55-2.94-2.94-3.69h0c-4.11-2.23-7.93-5.11-11.35-8.58-.46-.47-.9-.95-1.35-1.44,7.59,2.45,12.94,3.2,13.42,3.26h0Z"/></g></svg>