<?xml version="1.0" encoding="UTF-8"?><svg id="Layer_2" xmlns="http://www.w3.org/2000/svg" viewBox="0 0 52.85 102.68"><defs><style>.cls-1{fill:#231f20;}</style></defs><g id="Layer_1-2"><path class="cls-1" d="m48.67,69.73c-1.76-1.41-4.87-3.33-9.32-5.76-2.73-1.5-4.48-2.62-5.25-3.36-.78-.75-1.17-1.71-1.17-2.88,0-1.26.49-2.32,1.47-3.19.98-.86,2.21-1.3,3.67-1.3,2.46,0,4.64.96,6.53,2.88,1.89,1.92,3.28,4.55,4.15,7.89h1.19l-1.85-10.2c-3.7-1.27-6.85-1.97-9.48-2.12,2.74-.87,5.13-2.33,6.82-4.83.67-.98,1.28-2.03,1.76-3.11.9-2.04,1.69-4.12,2.48-6.19.14-.37.06-.82.08-1.24-.34.06-.43.12-.46.2-1.25,3.43-2.96,6.6-5.09,9.56-.37.51-.65,1.08-.97,1.63-.34.18-.68.36-1.01.55-.72.42-1.39.99-2.17,1.24-1.89.6-3.84,1.06-5.76,1.58-.05-.08-.1-.17-.16-.25,1.13-1.35,2.27-2.69,3.4-4.04.14.13.26.23.38.35.09-.46.17-.84.27-1.33.85,1,2.12,1.45,3.09.99,1.05-.5,2.46-.82,2.36-2.41-.06-.88-.19-1.87-.65-2.56-.47-.69-1.39-1.08-2.27-1.71,2.92-4.25,7.18-7.13,11.7-9.89-.28-.06-.47-.16-.62-.12-2.5.7-4.92,1.51-6.62,3.71-.95,1.24-2.09,2.33-3.14,3.49-.1-.27-.08-.46-.02-.63.78-2,1.75-3.95,2.31-6.01.85-3.14,2.46-5.71,4.9-7.83.4-.35.62-.91.92-1.38-2.85.15-3.95,2.48-5.64,4.2.06-1.19.13-2.28.18-3.37.14-3.35.27-6.71.39-10.06,0-.3-.17-.6-.26-.9-.12-.01-.23-.02-.35-.03,0,.13,0,.26,0,.39-.26,2.27-.63,4.53-.75,6.81-.14,2.8-.05,5.62-.1,8.43,0,.46-.18.93-.3,1.48-2.88-3.29-5.05-6.72-6.07-10.83-.17.51-.16.95-.13,1.38.05.77.16,1.55.17,2.32,0,1.44.4,2.71,1.4,3.79,1.14,1.23,2.26,2.47,3.36,3.74.29.33.44.78.66,1.18-.08.09-.16.18-.24.28-.11-.11-.21-.26-.34-.34-2.26-1.27-4.48-2.6-6.8-3.75-.86-.43-1.93-.43-2.9-.62.88,1.85,2.31,2.48,4.08,2.47-.67-.24-1.36-.42-1.99-.73-.53-.26-.98-.68-1.38-1.17,2.53.15,4.42,1.69,6.47,2.85-1.05-.33-2.1-.65-3.15-.98,1.29.54,2.57,1.08,3.99,1.67-2.27,2.36-3.48,4.96-4.29,7.91-2.57-2-4.95-3.78-8.05-4.48.11.21.14.31.2.37,1.89,1.47,3.8,2.91,5.67,4.4.48.38.82.93,1.3,1.5.86-.21,1.61.51,1.45,1.67-.1.67-.12,1.35-.17,2.03-.03.38-.03.76-.05,1.14-.11,0-.22,0-.33,0-.21-1.46-.42-2.91-.63-4.37-.29,1.64-.1,3.23.56,4.72.5,1.13.35,2.07-.45,2.95-1,1.09-1.99,2.2-3.03,3.25-.68.68-1.62,1.16-2.14,1.93-.31.45-.64.85-1,1.23-3.3,2.25-6.09,3.36-7.27,3.34-1.22-.02-2.04-.53-2.04-.53-.25-.16-.49-.35-.7-.58-.69-.74-1.19-1.9-1.51-3.49-.32-1.59-.48-3.69-.48-6.3v-26.62h10.95v-1.51h-11V0h-1.26c-.5,3.78-1.33,6.97-2.49,9.57-1.15,2.6-2.67,4.63-4.55,6.1-1.88,1.47-4.07,2.38-6.58,2.71v1.21h4.62v26.17c0,4.76.98,8.38,2.94,10.88,1.96,2.5,4.81,3.74,8.57,3.74.84,0,1.66-.1,2.48-.26-.99.5-2.07.79-3.12,1.16-.9.32-1.9.37-2.84.59-3.34.8-6.26,2.3-8.24,5.23-.67.98-1.28,2.03-1.76,3.11-.9,2.04-1.69,4.12-2.48,6.19-.14.37-.06.82-.08,1.24.34-.06.43-.12.46-.2,1.25-3.43,2.96-6.6,5.09-9.56.37-.51.65-1.08.97-1.63.34-.18.68-.36,1.01-.55.72-.42,1.39-.99,2.17-1.24,1.89-.6,3.84-1.06,5.76-1.58.05.08.1.17.16.25-1.13,1.35-2.27,2.69-3.4,4.04-.14-.13-.26-.23-.38-.35-.09.46-.17.84-.27,1.33-.85-1-2.12-1.45-3.09-.99-1.05.5-2.46.82-2.36,2.41.06.88.19,1.87.65,2.56.47.69,1.39,1.08,2.27,1.71-2.92,4.25-7.18,7.13-11.7,9.89.28.06.47.16.62.12,2.5-.7,4.92-1.51,6.62-3.71.95-1.24,2.09-2.33,3.14-3.49.1.27.08.46.02.63-.78,2-1.75,3.95-2.31,6.01-.85,3.14-2.46,5.71-4.9,7.83-.4.35-.62.91-.92,1.38,2.85-.15,3.95-2.48,5.64-4.2-.06,1.19-.13,2.28-.18,3.37-.14,3.35-.27,6.71-.39,10.06,0,.3.17.6.26.9.11.01.23.02.34.03,0-.13,0-.26,0-.39.26-2.27.63-4.53.75-6.81.14-2.8.05-5.62.1-8.43,0-.46.18-.93.3-1.48,2.88,3.29,5.05,6.72,6.07,10.83.17-.51.16-.95.13-1.38-.05-.77-.16-1.55-.17-2.32,0-1.44-.4-2.71-1.4-3.79-1.14-1.23-2.26-2.47-3.36-3.74-.29-.33-.44-.78-.66-1.18.08-.09.16-.18.24-.28.11.11.21.26.34.34,2.26,1.27,4.48,2.6,6.8,3.75.86.43,1.93.43,2.9.62-.88-1.85-2.31-2.48-4.08-2.47.67.24,1.36.42,1.99.73.53.26.98.68,1.38,1.17-2.53-.15-4.42-1.69-6.47-2.85,1.05.33,2.1.65,3.15.98-1.29-.54-2.57-1.08-3.99-1.67,2.27-2.36,3.48-4.96,4.29-7.91,2.57,2,4.95,3.78,8.05,4.48-.11-.21-.14-.31-.2-.37-1.89-1.47-3.8-2.91-5.67-4.4-.48-.38-.82-.93-1.3-1.5-.86.21-1.61-.51-1.45-1.67.1-.67.12-1.35.17-2.03.03-.38.03-.76.05-1.14.11,0,.22,0,.33,0,.21,1.46.42,2.91.63,4.37.29-1.64.1-3.23-.56-4.72-.5-1.13-.35-2.07.45-2.95,1-1.09,1.99-2.2,3.03-3.25.68-.68,1.62-1.16,2.14-1.93.49-.71,1.05-1.33,1.65-1.89.25-.1.51-.19.76-.31.68-.32,1.26-.65,1.77-.96-.38,1-.58,2.08-.58,3.26,0,2.67,1.04,4.86,3.12,6.59,1.29,1.08,3.66,2.58,7.12,4.48,3.46,1.9,5.63,3.21,6.5,3.91,1.5,1.17,2.24,2.73,2.24,4.66s-.64,3.44-1.91,4.62c-1.27,1.17-2.89,1.76-4.86,1.76-5.57,0-9.67-4.56-12.31-13.67h-1.06l1.06,13.36c4.95,1.61,9.2,2.42,12.75,2.42,2.14,0,4.12-.27,5.93-.81,1.82-.54,3.38-1.33,4.7-2.35,1.32-1.03,2.31-2.23,2.99-3.6.67-1.38,1.01-2.93,1.01-4.66,0-3.43-1.39-6.21-4.18-8.35Zm.71-38.34c-1.33,1.1-2.63,2.18-4.02,3.33.41-1.36,2.48-2.82,4.02-3.33Zm-.27-9.42c-1.84,1.93-3.68,3.85-4.8,6.32.7-2.78,2.54-4.7,4.8-6.32Zm-4.74-7.67c.12,0,.24.01.36.02l-.38,7.75c-.1,0-.2-.01-.3-.02.1-2.58.21-5.16.31-7.75Zm-6.59,6.92c1.63,2.49,3.2,4.87,4.76,7.26-1.93-2.15-4.67-3.78-4.76-7.26Zm.05,21.14c-.2.44-.14,1-.23,1.5-.09.5-.21.99-.31,1.49-.11-.02-.22-.04-.33-.06.04-1.48.09-2.96.13-4.59.86.51,1.05.95.73,1.67Zm3.44-.71c.47-.05,1.21.11,1.42.44.61.93.72,2.06.13,3.04-.55.92-1.47,1.35-2.61,1.2.5-.18,1.01-.37,1.51-.55,0-.04-.02-.08-.03-.12-.47.06-.95.17-1.42.19-1.25.05-1.74-.78-1.36-1.97.39-1.23,1.06-2.09,2.36-2.23Zm.37-11.39c.46.58,1.05,1.16.76,2.07-.4,1.22-.76,2.46-1.12,3.69-.18.63-.22,1.32-.5,1.89-.49.99-1.13,1.91-1.79,3-.34-.54-.44-.82-.63-.96-1.15-.86-.97-2-.68-3.15.59-2.27,1.43-4.43,2.73-6.4.41-.62.84-.62,1.22-.15Zm-3.49,3.39c-.45,1.63-.83,3.01-1.21,4.37-.49-.45.04-2.56,1.21-4.37Zm-8.6.41c2.03.16,8.92,5.16,8.99,6.98-2.95-2.29-5.95-4.61-8.99-6.98ZM3.03,82.58c1.33-1.1,2.63-2.18,4.02-3.33-.41,1.36-2.48,2.82-4.02,3.33Zm.27,9.42c1.84-1.93,3.68-3.85,4.8-6.32-.7,2.78-2.54,4.7-4.8,6.32Zm4.74,7.67c-.12,0-.24-.01-.36-.02.13-2.58.25-5.16.38-7.75.1,0,.2.01.3.02-.1,2.58-.21,5.16-.31,7.75Zm6.59-6.92c-1.63-2.49-3.2-4.87-4.76-7.26,1.93,2.15,4.67,3.78,4.76,7.26Zm-.05-21.14c.2-.44.14-1,.23-1.5.09-.5.21-.99.31-1.49.11.02.22.04.33.06-.04,1.48-.09,2.96-.13,4.59-.86-.51-1.05-.95-.73-1.67Zm-3.44.71c-.47.05-1.21-.11-1.42-.44-.61-.93-.72-2.06-.13-3.04.55-.92,1.47-1.35,2.61-1.2-.5.18-1.01.37-1.51.55,0,.04.02.08.03.12.47-.06.95-.17,1.42-.19,1.25-.05,1.74.78,1.36,1.97-.39,1.23-1.06,2.09-2.36,2.23Zm-.37,11.39c-.46-.58-1.05-1.16-.76-2.07.4-1.22.76-2.46,1.12-3.69.18-.63.22-1.32.5-1.89.49-.99,1.13-1.91,1.79-3,.34.54.44.82.63.96,1.15.86.97,2,.68,3.15-.59,2.27-1.43,4.43-2.73,6.4-.41.62-.84.62-1.22.15Zm3.49-3.39c.45-1.63.83-3.01,1.21-4.37.49.45-.04,2.56-1.21,4.37Zm8.6-.41c-2.03-.16-8.92-5.16-8.99-6.98,2.95,2.29,5.95,4.61,8.99,6.98Zm-6.07-17.09c-1.59.42-3.27.63-4.77,1.26-1.07.45-1.91,1.44-2.85,2.19,0,0,.01-.02.02-.03-1.08,1.39-2.17,2.78-3.23,4.19-.21.27-.33.62-.43.81.38-.94.7-2.08,1.27-3.06,2.12-3.63,5.56-5.29,9.49-6.11.92-.19,1.9-.06,2.92.03-.81.24-1.61.51-2.42.72Zm14.68,24.58c-1.49-.35-2.81-.75-3.96-1.19l-.79-.26-.44-4.79c.97,1.55,1.89,2.79,2.77,3.71.88.92,2.01,1.84,3.38,2.75l-.97-.22Zm4.13-36.25c1.59-.42,3.27-.63,4.77-1.26,1.07-.45,1.91-1.44,2.85-2.19,0,0-.01.02-.02.03,1.08-1.39,2.17-2.78,3.23-4.19.21-.27.33-.62.43-.81-.38.94-.7,2.08-1.27,3.06-1.95,3.34-5.03,5.01-8.57,5.89-.96.03-1.86.12-2.72.28-.37-.03-.74-.06-1.12-.09.81-.24,1.61-.51,2.42-.73Zm-16.83,7.82c-2.98,0-5.41-1.09-7.28-3.26-.7-.84-1.23-1.69-1.58-2.56s-.61-2.04-.78-3.49c-.17-1.46-.25-3.14-.25-5.05v-26.77c1.91-1.11,3.45-2.63,4.62-4.57v31.25c0,2.61.1,4.81.3,6.58s.54,3.17,1,4.19c.47,1.02,1.11,1.8,1.93,2.34.82.54,1.97.97,3.44,1.31-.4.03-.87.05-1.41.05Zm28.61,26.09c-1.49,1.5-3.56,2.42-6.2,2.77,3.22-1.26,4.83-3.54,4.83-6.86,0-2.11-.78-3.87-2.33-5.27-1.06-.97-3.5-2.49-7.34-4.57-3.55-1.99-5.91-3.53-7.08-4.62-1.52-1.38-2.29-3.15-2.29-5.32,0-1.85.58-3.47,1.74-4.88.1-.12.23-.23.34-.35.4-.34.74-.66,1.05-.96.98-.76,2.15-1.39,3.56-1.86-2.55,1.76-3.82,3.77-3.82,6.02,0,1.49.59,2.81,1.78,3.96,1.19,1.14,3.51,2.65,6.97,4.53,4.19,2.2,7.02,4.07,8.48,5.63,1.7,1.76,2.55,3.78,2.55,6.07s-.75,4.22-2.24,5.71Z"/></g></svg>