<?xml version="1.0" encoding="UTF-8"?><svg id="Layer_2" xmlns="http://www.w3.org/2000/svg" viewBox="0 0 60.77 110.95"><defs><style>.cls-1{fill:#231f20;}</style></defs><g id="Layer_1-2"><path class="cls-1" d="m43.23,41.74c.48-1.42,1.88-1.83,2.91-2.62,2.07-1.6,4.25-3.05,6.34-4.62,1-.75,1.84-1.7,2.85-2.42,1.24-.88,2.6-1.59,3.87-2.43.57-.38,1.05-.89,1.57-1.34-.06-.09-.12-.17-.18-.26-1.03.56-2.05,1.12-3.28,1.79.55-.81.97-1.44,1.54-2.29-.37.15-.55.17-.66.27-.56.49-1.19.92-1.62,1.5-1.14,1.56-2.81,2.19-4.52,2.76-2.47.83-4.81,1.92-6.84,3.59-.08.06-.18.09-.27.13-.07-.04-.14-.08-.2-.13.22-.41.34-.95.68-1.21,3.26-2.56,6.56-5.05,9.82-7.6,1.28-1,2.48-2.11,3.71-3.17.13-.11.2-.31.22-.56-.3.21-.61.43-1.06.75.13-.32.18-.47.3-.77-4.25,3.12-8.38,6.15-12.55,9.22-.41-1.37.04-2.82,1.01-3.56,2.18-1.68,4.39-3.32,6.52-5.07.83-.68,1.5-1.57,2.16-2.44,1.04-1.37,2.03-2.77,2.99-4.19.49-.72.85-1.53,1.28-2.29-.1-.07-.21-.14-.31-.21-1.32,1.64-2.6,3.31-3.98,4.91-1.42,1.65-2.88,3.28-4.44,4.79-1.54,1.5-3.22,2.84-4.91,4.3.05-.43.12-.87.16-1.3.08-.87.11-1.74.23-2.6.04-.29.23-.63.46-.8,1.3-.95,2.65-1.82,3.94-2.77.92-.68,1.78-1.42,2.65-2.16.7-.59,1.43-1.15,2.06-1.8,1.21-1.25,2.36-2.56,3.52-3.85.09-.1.06-.31.1-.57-3.88,3.38-7.65,6.66-11.41,9.93-.06-.06-.11-.12-.17-.18,1.82-1.85,3.67-3.66,5.45-5.55,1.77-1.88,3.43-3.86,4.89-5.98-.11-.09-.22-.19-.33-.28-3.64,3.98-7.28,7.96-11.06,12.09,0-1.53.02-2.72,1.17-3.72,1.73-1.49,3.39-3.09,4.97-4.75,2.22-2.34,3.59-5.19,4.6-8.22.03-.1.08-.2.12-.3-.08-.04-.15-.07-.23-.11-.19.22-.42.41-.56.66-.81,1.45-1.62,2.91-2.4,4.37-.91,1.7-1.99,3.24-3.6,4.37-.84.59-1.57,1.34-2.45,2,.31-.54.58-1.1.93-1.61,1.07-1.52,2.18-3,3.25-4.52,1.73-2.46,2.82-5.22,3.67-8.08.05-.16.07-.32.1-.48,0-.04-.06-.08-.24-.32-2.73,5.39-5.38,10.73-9.02,15.47,1.04-2.09,2.08-4.19,3.12-6.29-.07-.03-.14-.07-.21-.1-.79,1.52-1.59,3.04-2.38,4.56-.01-.01-.03-.03-.04-.04,1.44-4.24,2.88-8.48,4.32-12.72-.11-.04-.21-.07-.32-.11-.66,2.11-1.28,4.24-2,6.33-.71,2.07-1.54,4.1-2.44,6.09.26-1.32.52-2.65.77-3.97.06-.34.06-.69.09-1.03-.16.29-.31.58-.49.91-.08-.36-.14-.64-.2-.91.27-.83.52-1.66.81-2.48.2-.53.46-1.04.7-1.56-.02-.18-.04-.37-.06-.55-.04-.04-.07-.07-.11-.11-.23.57-.53,1.12-.68,1.71-.27.98-.45,1.99-.66,2.98,0,0,0-.01,0-.02-.28,1.37-.56,2.74-.86,4.24-.22-1-.4-1.86-.58-2.71.05.63.1,1.26.15,1.88.08.95.76,1.85.22,2.92-.12-.43-.23-.81-.34-1.18.04.48.08.97.12,1.45.08,1.05.16,2.08.22,3.1-.12-.11-.29-.2-.34-.34-.16-.4-.27-.82-.41-1.23-.35-.99-.67-1.99-1.08-2.96-.71-1.68-.86-3.41-.58-5.2.3-1.91.25-3.82.02-5.74-.14-1.16-.12-2.33-.19-3.49,0-.09-.08-.18-.16-.36-.12.19-.22.28-.25.39-.21,1.07-.53,2.14-.57,3.22-.06,1.87-.04,3.76.12,5.62.18,2.06.43,4.13.88,6.14.4,1.79,1.11,3.52,1.66,5.28.12.38.18.78.14,1.22-.63-1.24-1.26-2.47-1.89-3.71-1.42-2.79-2.82-5.57-3.82-8.58-.79-2.38-2.17-4.57-3.29-6.84-.06-.12-.23-.19-.35-.28-.07.04-.13.08-.2.11,1.18,2.59,2.36,5.18,3.54,7.78-1.62-2.21-3.22-4.41-5.07-6.41,1.9,3,3.9,5.94,5.67,9.01,1.75,3.05,3.26,6.24,4.88,9.37-.1.06-.19.11-.29.17-.78-1.14-1.59-2.25-2.34-3.42-.75-1.17-1.44-2.37-2.13-3.58-.7-1.23-1.39-2.47-2.02-3.73-.61-1.2-1.07-2.48-1.99-3.47-.09.05-.18.1-.28.14.24.55.44,1.12.72,1.66.93,1.79,1.86,3.58,2.85,5.34.7,1.26,1.45,2.5,2.26,3.69,1.02,1.51,2.1,2.97,3.18,4.43.89,1.21.61,2.48.34,3.66-.44-1.07-.8-2.26-1.41-3.32-.74-1.29-1.73-2.43-2.55-3.67-.94-1.42-1.78-2.92-2.74-4.33-.84-1.24-1.74-2.44-2.68-3.61-.44-.55-.98-1.04-1.65-1.28-.08.06-.15.13-.23.19.14.29.24.61.43.86.85,1.1,1.73,2.18,2.6,3.27.21.26.54.48.19.88-.06.07.05.3.1.45.87,2.38,1.66,4.8,2.65,7.13.75,1.78,1.81,3.42,2.64,5.17.55,1.15.94,2.38,1.4,3.57,0,.03.02.05.02.08-.02,1.47-.43,2.84-1,4.22-1.36-4.7-4.03-8.68-6.46-12.8.44.56.88,1.11,1.31,1.67.06-.03.11-.07.17-.1-.05-.16-.08-.33-.16-.47-.9-1.58-1.88-3.12-2.68-4.75-.59-1.2-1.43-1.89-2.93-2.18.19.47.29.84.47,1.16,1.55,2.82,3.14,5.61,4.67,8.44,1.17,2.16,2.35,4.31,3.36,6.54.61,1.35,1.12,2.81,1.3,4.27.13,1.03-.36,2.13-.57,3.2-.11,0-.22,0-.33,0-.09-.32-.23-.64-.25-.97-.15-1.8-.92-3.34-1.81-4.86-1.55-2.66-3.05-5.35-4.6-8.01-.51-.87-1.12-1.69-1.68-2.53-.11.05-.23.11-.34.16.24.62.42,1.27.73,1.85,1.67,3.13,3.45,6.2,5.03,9.37,1.03,2.07,1.91,4.24,1.98,6.61.01.52.22,1.22-.62,1.4.4.58-1.51,4.81-2.48,5.55-.11-.48-.24-.89.42-1.11.18-.06.35-.47.34-.72-.1-2.17-.12-4.36-.41-6.5-.31-2.32-.8-4.61-1.34-6.89-.27-1.16-.79-2.27-1.26-3.37-.17-.4-.52-.73-.88-1.02,2.15,6.99,3.26,14.04,2.38,21.32-.16-.77-.29-1.55-.5-2.31-.47-1.68-1.08-3.33-1.45-5.03-.28-1.29-.27-2.63-.38-3.95-.07-.79-.12-1.58-.22-2.36-.03-.22-.19-.42-.35-.76-.75.92-.25,1.88-.44,2.85-1-1.73-1.63-3.56-2.95-4.94-.07.03-.15.07-.22.1.27.58.54,1.17.8,1.75.76,1.69,1.65,3.34,2.21,5.09.41,1.27.5,2.67.53,4.01.05,2.76-.02,5.51-.07,8.27-.01.78-.05,1.57-.16,2.35-.05.35-.34.67-.52,1.01-.11-.01-.22-.03-.33-.04-.32-1.9-.73-3.79-.93-5.7-.24-2.28-.34-4.56-1.12-6.76-.31-.88-.19-1.89-.39-2.82-.11-.51-.45-.97-.69-1.46-.13.03-.27.07-.4.1.04,1.26-.12,2.57.22,3.74.17.56.23,1.1.32,1.66.07.42.25.81.32,1.23.1.56.15,1.12.22,1.69.1.83.17,1.67.31,2.5.38,2.23.82,4.46,1.15,6.69.06.38-.28.83-.44,1.24-.06-.03-.12-.06-.18-.08-1.49-6.02-2.99-12.05-4.48-18.07-.09,0-.18.01-.28.02-.1.88-.37,1.78-.27,2.63.25,2.08.59,4.15,1.05,6.19.55,2.44,1.3,4.84,1.89,7.28.35,1.45.62,2.93.82,4.42.06.43-.25.91-.39,1.37-.09,0-.19-.02-.28-.03-.2-.52-.33-1.08-.61-1.54-.82-1.35-1.71-2.65-2.54-4-.98-1.6-1.95-3.21-2.88-4.84-.29-.5-.57-.9-1.42-.89.86,1.61,1.63,3.12,2.45,4.6,1.29,2.3,2.62,4.59,3.95,6.87.35.61.28,1.1-.21,1.61-.7.74-1.4,1.49-2.09,2.24-.82.42-1.56.93-2.2,1.54-.91.86-1.63,1.87-2.16,3.02-.1.22-.18.45-.26.67-.56.38-1.14.76-1.63,1.21-.63.25-1.32.39-2.09.39-.48,0-.97-.07-1.48-.22-.5-.14-.97-.44-1.4-.9-.43-.46-.78-1.1-1.04-1.94-.26-.84-.4-1.93-.4-3.28v-23.54h10.22v-1.01h-10.22v-9.86c-.48.38-.98.66-1.51.83-.53.17-1.15.25-1.87.25-.82,0-1.39-.05-1.73-.14-.34-.1-.7-.22-1.08-.36v9.29H.89v1.01h5.54v22.9c0,2.54.71,4.51,2.12,5.9s3.92,2.09,7.52,2.09c.62,0,1.19-.05,1.73-.14-.99.79-2.2,1.08-3.37,1.48-.72.25-1.52.29-2.27.48-2.67.64-5.01,1.84-6.6,4.19-.53.79-1.02,1.62-1.41,2.49-.72,1.63-1.35,3.29-1.99,4.96-.11.29-.04.66-.06.99.27-.05.34-.09.37-.16,1-2.74,2.37-5.29,4.08-7.65.3-.41.52-.87.78-1.3.27-.15.54-.29.81-.44.58-.33,1.12-.79,1.74-.99,1.52-.48,3.07-.85,4.61-1.26.04.07.08.13.12.2-.91,1.08-1.81,2.16-2.72,3.23-.11-.1-.2-.19-.31-.28-.07.37-.13.67-.21,1.07-.68-.8-1.7-1.16-2.47-.8-.84.4-1.97.66-1.89,1.93.05.7.15,1.5.52,2.05.37.56,1.12.86,1.82,1.37-2.34,3.4-5.75,5.71-9.36,7.92.22.05.38.13.5.09,2-.56,3.94-1.21,5.3-2.97.76-.99,1.67-1.87,2.51-2.8.08.22.07.37.01.5-.62,1.6-1.4,3.16-1.85,4.81-.68,2.52-1.97,4.57-3.92,6.26-.32.28-.49.73-.74,1.1,2.28-.12,3.17-1.99,4.52-3.36-.05.95-.1,1.82-.14,2.7-.11,2.68-.22,5.37-.31,8.05,0,.24.14.48.21.72.09,0,.18.02.28.03,0-.11,0-.21,0-.32.21-1.82.51-3.63.6-5.45.11-2.24.04-4.5.08-6.75,0-.37.15-.74.24-1.19,2.3,2.63,4.04,5.38,4.86,8.67.14-.41.13-.76.11-1.11-.04-.62-.13-1.24-.14-1.86,0-1.15-.32-2.17-1.12-3.03-.91-.98-1.81-1.98-2.69-2.99-.23-.27-.36-.63-.53-.94.06-.07.13-.15.19-.22.09.09.16.21.27.27,1.81,1.02,3.59,2.08,5.44,3,.69.34,1.54.34,2.32.5-.71-1.48-1.85-1.99-3.26-1.98.53.19,1.09.33,1.59.58.42.21.78.54,1.1.93-2.03-.12-3.54-1.35-5.18-2.28.84.26,1.68.52,2.52.78-1.03-.43-2.06-.86-3.19-1.34,1.81-1.89,2.78-3.97,3.43-6.33,2.05,1.6,3.96,3.03,6.45,3.58-.09-.17-.11-.25-.16-.29-1.51-1.17-3.04-2.33-4.54-3.52-.38-.3-.65-.75-1.04-1.2-.69.17-1.29-.41-1.16-1.34.08-.54.1-1.08.13-1.63.02-.3.03-.61.04-.91.09,0,.18,0,.27,0,.17,1.17.34,2.33.51,3.5.24-1.32.08-2.59-.44-3.77-.4-.9-.28-1.66.36-2.36.8-.87,1.59-1.76,2.43-2.6.54-.55,1.29-.93,1.72-1.54.5-.73,1.1-1.33,1.74-1.88.13-.05.26-.09.39-.15.2-.1.39-.2.58-.31-.07.48-.12.96-.12,1.46,0,1.58.23,2.88.68,3.89.46,1.01,1.04,1.84,1.76,2.48.72.65,1.5,1.15,2.34,1.51.84.36,1.62.66,2.34.9l5.62,1.94c1.25.43,2.34,1.02,3.28,1.76.94.75,1.4,2.03,1.4,3.85,0,2.11-.6,3.64-1.8,4.57-1.2.94-2.57,1.4-4.1,1.4-1.83,0-3.38-.31-4.68-.94-1.3-.62-2.39-1.43-3.28-2.41-.89-.98-1.6-2.06-2.12-3.24-.53-1.18-.96-2.34-1.3-3.49h-.79v10.08h.79c.14-.24.33-.47.58-.68.24-.22.62-.32,1.15-.32s1.1.11,1.73.32c.62.22,1.31.44,2.05.68.74.24,1.56.47,2.45.68.89.22,1.86.32,2.92.32,1.82,0,3.44-.29,4.86-.86,1.42-.58,2.62-1.33,3.6-2.27.98-.94,1.73-2.03,2.23-3.28.5-1.25.76-2.52.76-3.82,0-2.21-.72-3.98-2.16-5.33-1.44-1.34-3.29-2.4-5.54-3.17l-5.26-1.73c-2.11-.67-3.71-1.4-4.79-2.2-1.08-.79-1.62-1.96-1.62-3.49,0-1.18.3-2.19.89-3.04.47-.47.88-.86,1-.97.18-.17.37-.33.56-.48,1.22-.78,2.81-1.2,4.82-1.2,1.2,0,2.24.22,3.13.65.89.43,1.63,1.03,2.23,1.8.6.77,1.12,1.64,1.55,2.63.43.98.82,2,1.15,3.06h.79v-8.21h-.79c-.24.38-.62.58-1.15.58s-.98-.08-1.37-.25c-.38-.17-.82-.33-1.3-.5-.48-.17-1.04-.33-1.69-.5-.65-.17-1.5-.25-2.56-.25-.71,0-1.38.06-2.04.17.07-.09.11-.17.12-.24,0-.04.06-.29.16-.62.04-.14.09-.3.19-.4.61-.6,1.24-1.1,2.17-1.18,2.15-.17,4.3-.32,6.42-.65,2.39-.38,4.63-1.22,6.7-2.51.58-.36,1.24-.59,1.78-1.01.57-.44,1.03-1.02,1.54-1.54-.08-.13-.16-.26-.25-.39-5.1,3.13-10.49,5.35-16.58,5.52.9-1.6,2.05-2.69,3.84-3.2,3.44-.98,6.53-2.7,9.4-4.84.77-.58,1.76-.87,2.52-1.46.92-.72,1.72-1.61,2.56-2.42-.05-.08-.11-.16-.16-.23-.32.1-.69.13-.96.31-2.07,1.4-4.07,2.92-6.2,4.23-1.79,1.11-3.72,2-5.61,2.95-.89.44-1.83.78-2.79,1.18.51-1.68,2.02-2.03,3.27-2.6,3.73-1.68,6.9-4.17,9.96-6.81.92-.8,1.68-1.79,2.5-2.7.13-.14.2-.34.21-.61-4.09,3.68-8.31,7.13-13.48,9.25.17-.44.33-.85.49-1.26q-1.12,1.68-1.76,1.72c.37-1.15,1.04-2.01,1.84-2.32.07-.03.21.12.32.18,2.12-1.6,4.14-3.36,6.38-4.76,2.27-1.42,4.18-3.17,5.9-5.17.74-.87,1.38-1.82,2.07-2.74-.07-.07-.13-.14-.19-.21-.18.11-.39.19-.53.34-1.15,1.13-2.33,2.23-3.41,3.41-1.65,1.8-3.54,3.29-5.6,4.58-.89.56-1.78,1.13-2.66,1.7-.07-.06-.14-.12-.22-.18.35-.54.61-1.18,1.06-1.61,1.81-1.71,3.57-3.49,5.55-5,2.42-1.85,5.04-3.44,7.55-5.17.56-.39,1.04-.89,1.5-1.44-2.52,1.09-4.82,2.58-7.03,4.19-2.24,1.64-4.39,3.4-6.7,5.06.25-.33.46-.73.77-.99,2.83-2.4,5.74-4.71,8.5-7.19,1.15-1.02,2.62-1.28,3.82-2.12,1.32-.91,2.68-1.75,4.03-2.62.08-.05.11-.16.16-.24-.05-.08-.1-.16-.15-.24-1.94,1.1-3.87,2.2-5.81,3.29-.03-.05-.06-.1-.09-.14.27-.4.54-.81.81-1.21-.06-.06-.13-.11-.19-.17-.22.16-.46.31-.66.49-.76.67-1.48,1.39-2.28,2-.42.32-1,.41-1.48.65-1.29.65-2.55,1.33-3.84,1.97-.29.14-.63.15-.95.22-.32.28-.64.56-.96.83-.08-.07-.17-.15-.25-.22.38-.52.75-1.05,1.14-1.56.03-.04.23.04.35.07Zm14.43-24.19c-1.89,2.82-3.64,5.78-6.84,7.57,2.32-2.57,4.58-5.07,6.84-7.57Zm-2.37-13.57c-.64,2.94-2.17,5.4-3.97,7.73,1.32-2.58,2.65-5.15,3.97-7.73Zm-8.22,15c1.35-1.31,2.63-2.69,4.08-3.88,1.18-.97,2.15-2.06,2.89-3.36.9-1.57,1.71-3.2,2.56-4.81-1.24,4.06-6.77,11.02-9.82,12.5.13-.21.18-.36.28-.46Zm7.3,7.61c-2.28,2.37-6.44,5.31-7.33,5.26,2.47-1.78,4.9-3.52,7.33-5.26Zm-7.18,6.02c.04.06.07.12.11.18-.56.38-1.13.77-1.69,1.15-.06-.08-.12-.16-.18-.25.59-.36,1.18-.72,1.77-1.09Zm-3.84-22.79c-.07,0-.14,0-.22,0,.02-1.75.04-3.5.07-5.25.36,1.75.49,3.5.15,5.25Zm-10.14,9.9c.07-.05.15-.09.22-.14.93.83,1.4,1.97,1.77,3.17-.66-1.01-1.32-2.02-1.99-3.03Zm8,15.43c-.64-1.31-1.27-2.63-1.91-3.94.08-.04.15-.07.23-.11.64,1.32,1.28,2.65,1.92,3.97-.08.03-.16.05-.24.08Zm-12.2,10.2c.03-.67.05-1.34.07-1.75,0,.41.01,1.09.02,1.76-.03,0-.06,0-.09-.01Zm1.45,8.22c-.15-.97-.29-1.93-.44-2.9.09-.01.19-.03.28-.04.14.97.29,1.93.43,2.9-.09.01-.18.03-.27.04ZM2.43,94.87c1.06-.88,2.1-1.74,3.22-2.66-.33,1.09-1.99,2.26-3.22,2.66Zm.22,7.54c1.47-1.54,2.95-3.08,3.84-5.05-.56,2.22-2.04,3.77-3.84,5.05Zm3.79,6.14c-.1,0-.19,0-.29-.01.1-2.07.2-4.13.3-6.2.08,0,.16,0,.24.01-.08,2.07-.16,4.13-.25,6.2Zm5.28-5.54c-1.31-1.99-2.56-3.9-3.81-5.81,1.55,1.72,3.73,3.02,3.81,5.81Zm-.04-16.92c.16-.36.11-.8.18-1.2.07-.4.16-.79.25-1.19.09.02.17.03.26.05-.03,1.19-.07,2.37-.11,3.68-.69-.41-.84-.76-.59-1.33Zm-2.75.57c-.38.04-.97-.09-1.14-.35-.49-.75-.57-1.65-.1-2.44.44-.74,1.18-1.08,2.09-.96-.4.15-.81.29-1.21.44,0,.03.01.06.02.09.38-.05.76-.13,1.14-.15,1-.04,1.4.63,1.09,1.58-.31.98-.85,1.67-1.89,1.78Zm-.3,9.12c-.37-.47-.84-.93-.61-1.65.32-.98.61-1.97.9-2.96.15-.5.17-1.06.4-1.52.39-.79.9-1.53,1.43-2.4.28.43.35.65.5.77.92.69.78,1.6.54,2.52-.47,1.81-1.14,3.54-2.19,5.12-.33.49-.67.5-.98.12Zm2.79-2.71c.36-1.3.67-2.41.97-3.5.39.36-.03,2.05-.97,3.5Zm6.88-.33c-1.62-.12-7.14-4.13-7.2-5.59,2.36,1.83,4.76,3.69,7.2,5.59Zm-4.86-13.68c-1.28.33-2.62.5-3.82,1.01-.86.36-1.53,1.15-2.28,1.75,0,0,0-.01.01-.02-.86,1.12-1.73,2.23-2.59,3.35-.17.22-.26.49-.34.65.31-.76.56-1.66,1.02-2.45,1.69-2.9,4.45-4.24,7.6-4.89.73-.15,1.52-.05,2.34.02-.65.19-1.29.41-1.94.58Zm8.34-25.02c.08-.04.16-.07.24-.11.06.09.12.17.17.26,1.04,2,2.14,3.95,3.53,5.76,1.03,1.34,1.67,2.97,2.47,4.48.1.2.08.47.11.7-.04,0-.08,0-.12.01-2.13-3.7-4.27-7.41-6.4-11.11Zm24.99,5.84c-2.99,2.19-6.22,3.81-9.94,4.31,3.54-.91,6.74-2.63,9.94-4.31Zm-16.87,3.14c-.29-.64-.38-1.26-.52-1.87-.49-2.1-.9-4.22-1.51-6.27-.9-3-1.56-6.05-1.98-9.15-.06-.46-.02-.93-.03-1.39.1,0,.21,0,.31,0,.31,1.64.54,3.3.94,4.92.82,3.33,1.77,6.63,2.59,9.97.25,1.03.28,2.12.38,3.18.02.19-.12.4-.19.61Zm.69-.89c-.35-.9.1-1.28.85-1.49-.27.46-.53.93-.85,1.49Zm13.65-6.61c-1.53,1.81-6.94,4.92-9.04,5.21,3.22-1.37,6.39-2.84,9.04-5.21Zm-10.48-.93c-.1,0-.2,0-.31,0,.04-1.05.07-2.11.11-3.16-.02-1.45-.04-2.89-.06-4.34.11,0,.22,0,.33,0-.06,1.44-.12,2.89-.18,4.33.03,1.05.07,2.11.1,3.16Zm.41,1.73c-.03-2.67-.05-5.25-.08-7.82,1,3.05,1.62,6.31.08,7.82Zm1.45-2.61c-.29-1.69-.58-3.37-.87-5.06.61,1.63,1.21,3.28.87,5.06Zm13.52-8.55c.05.06.1.11.16.17-.98.85-1.96,1.71-2.94,2.56.93-.91,1.86-1.82,2.78-2.73Zm-1.23-1.44c.68-.47,1.36-.92,2.04-1.39.06.09.12.17.18.26-1.38.9-2.77,1.81-4.15,2.71-.02-.07-.05-.13-.07-.2.67-.46,1.33-.93,2-1.39Zm-10.64-8.71c2.01,2.11,3.99,7.61,3.2,8.88-.49-3.15-1.62-6-3.2-8.88Zm-1.96.12c.85,2.26,1.57,4.54,1.36,6.99-.45-2.33-.9-4.66-1.36-6.99Zm1.27,18.98c.57-.56,1.15-1.12,1.83-1.79-.22,1.13-.87,1.61-1.83,1.79Zm1.45-2.6c-.09-.08-.18-.15-.27-.23.72-.87,1.45-1.73,2.17-2.6.11.1.22.19.33.29-.74.85-1.48,1.69-2.22,2.54Zm10.15-10.82c.03.06.06.13.09.19-.79.36-1.58.72-2.37,1.08-.03-.05-.05-.11-.08-.16.78-.37,1.57-.74,2.35-1.11Zm-5.92,3.58c-.13.3-.18.43-.23.55.85-1.52,2.5-1.67,3.92-2.23-1.31,1.35-2.72,2.58-4.14,3.79-.1.08-.33,0-.49,0-.65.81-1.3,1.61-1.95,2.42-.07-.05-.13-.1-.2-.15.94-1.41,1.09-3.32,3.08-4.38Zm11.71-11.36c-2.69,1.95-5.38,3.9-8.08,5.85-.06-.08-.11-.15-.17-.23,2.74-1.9,5.2-4.19,8.07-5.9.06.09.11.18.17.28Zm-.46-.92c.04.09.08.17.12.26-2.3,1.01-4.61,2.02-6.91,3.04,2-1.68,4.4-2.47,6.79-3.29Zm-10.35-7.47c.35.75.7,1.5,1.05,2.25-.08.03-.16.07-.23.1-.35-.76-.7-1.51-1.05-2.27l.23-.09Zm-5.18-6.37c1.78,4.08,3.55,8.17,5.33,12.25-2.39-3.82-4.16-7.91-5.33-12.25Zm.42.31c.06-.03.12-.07.17-.1.23.33.49.65.7,1,.77,1.25,1.53,2.51,2.3,3.76,1.39,2.27,2.5,4.65,2.86,7.32.06.43-.01.88-.03,1.32-.06,0-.12-.01-.18-.02-1.95-4.43-3.89-8.86-5.84-13.29Zm5.48,19.65s.07.03.11.04c0,.11.02.21.02.32.11-.24.29-.48.33-.73.09-.75.48-1.21,1.17-1.5,1.6-.67,3.19-1.38,4.79-2.07.17-.07.37-.08.55-.12-.4.48-.86.82-1.3,1.19-1.77,1.48-3.52,2.97-5.29,4.43-.12.1-.36.07-.54.1-.22.34-.45.69-.67,1.03-.06-.04-.13-.08-.19-.12.34-.86.68-1.71,1.03-2.57Z"/><path class="cls-1" d="m45.41,11.74c0-.06.16-.14.27-.21.01.07.03.14.04.21,0-.08-.01-.15-.02-.22h0s0,0,0,0h-.03c0-.63,0-1.27,0-1.91-.05.11-.1.21-.15.32-.09-.02-.19-.04-.28-.05.19-1.47.38-2.95.57-4.42.1,0,.2.01.3.02.02.12.05.24.07.36.35-1.92.7-3.83,1.05-5.75-.14-.03-.29-.06-.43-.09-.1.55-.21,1.11-.31,1.66-.19,1.13-.15,2.37-.6,3.38-1.36,3.06-.8,6.16-.52,9.28.03.33.24.65.39.98,0-.19,0-.38-.01-.56-.11-1-.24-2-.33-3Z"/><path class="cls-1" d="m45.75,15.3s0,.04,0,.07h.03s-.02-.04-.03-.07Z"/></g></svg>