<?xml version="1.0" encoding="UTF-8"?><svg id="Layer_2" xmlns="http://www.w3.org/2000/svg" viewBox="0 0 465.13 110.12"><defs><style>.cls-1{fill:#252525;}</style></defs><g id="Layer_1-2"><path class="cls-1" d="m27.5,80.22c-.38.93-.86,1.76-1.44,2.49-.58.73-1.27,1.33-2.05,1.79-.79.47-1.74.7-2.84.7-.99,0-1.79-.18-2.4-.52-.61-.35-1.08-.83-1.4-1.44-.32-.61-.54-1.29-.66-2.05-.12-.76-.17-1.57-.17-2.45v-29.29h10.23v-1.22h-10.23v-11.28c-.87.35-1.76.64-2.67.87-.9.23-1.79.35-2.67.35s-1.77-.12-2.67-.35c-.9-.23-1.79-.52-2.67-.87v11.28H0v1.22h5.86v26.93c0,1.05.06,2.19.17,3.41.12,1.22.57,2.36,1.36,3.41.79,1.05,2.01,1.92,3.67,2.62,1.66.7,4.01,1.05,7.04,1.05,1.11,0,2.27-.1,3.5-.3,1.22-.21,2.38-.63,3.45-1.27,1.08-.64,2.04-1.56,2.89-2.75.85-1.2,1.44-2.78,1.79-4.77l-1.31-.26c-.23.87-.54,1.78-.92,2.71Z"/><polygon class="cls-1" points="82.45 49.44 88.57 49.44 80.17 72.18 71.17 49.44 77.03 49.44 77.03 48.22 55.17 48.22 55.17 49.44 59.63 49.44 61.38 53.55 54.47 72.18 45.46 49.44 51.15 49.44 51.15 48.22 28.94 48.22 28.94 49.44 34.1 49.44 49.31 88.09 49.92 88.09 62.07 55.39 75.01 88.09 75.63 88.09 89.96 49.44 94.25 49.44 94.25 48.22 82.45 48.22 82.45 49.44"/><path class="cls-1" d="m168.57,59.85c0-3.85-1.06-6.88-3.19-9.09-2.13-2.21-5.12-3.32-8.96-3.32-2.62,0-4.81.39-6.56,1.18-1.75.79-3.18,1.7-4.28,2.75-1.11,1.05-1.95,2.11-2.54,3.19-.58,1.08-.99,1.88-1.22,2.4h-.18v-8.74h-16.26v1.22h5.77v35.06h-5.77v1.22h21.94v-1.22h-5.51v-18.71c0-2.68.29-5.01.87-7,.58-1.98,1.35-3.64,2.32-4.98.96-1.34,2.08-2.35,3.37-3.02,1.28-.67,2.62-1.01,4.02-1.01,1.69,0,3.03.57,4.02,1.71.99,1.14,1.49,2.93,1.49,5.38v27.63h-5.42v1.22h21.94v-1.22h-5.86v-24.65Z"/><path class="cls-1" d="m225.31,63.08l-7.43-2.54c-1.46-.52-2.62-1.06-3.5-1.62-.87-.55-1.52-1.1-1.92-1.66-.41-.55-.67-1.09-.79-1.62-.12-.52-.18-.99-.18-1.4,0-1.98.8-3.48,2.4-4.5,1.6-1.02,3.37-1.53,5.29-1.53,1.81,0,3.32.28,4.55.83,1.22.56,2.26,1.31,3.1,2.27.85.96,1.58,2.09,2.19,3.37.61,1.28,1.21,2.62,1.79,4.02h1.14v-10.67h-1.22c-.12.29-.26.56-.44.79-.18.23-.59.35-1.22.35-.35,0-.83-.11-1.44-.35-.61-.23-1.31-.48-2.1-.74-.79-.26-1.66-.51-2.62-.74-.96-.23-2-.35-3.1-.35-2.1,0-4.04.34-5.81,1.01-1.78.67-3.3,1.58-4.55,2.71-1.25,1.14-2.23,2.46-2.93,3.98-.7,1.52-1.05,3.12-1.05,4.81,0,1.57.26,2.93.79,4.07.52,1.14,1.18,2.11,1.97,2.93.79.82,1.65,1.47,2.58,1.97.93.49,1.81.89,2.62,1.18l7.08,2.62c1.58.58,2.81,1.15,3.72,1.7.9.56,1.59,1.12,2.05,1.71.47.58.77,1.15.92,1.7.14.55.22,1.09.22,1.62,0,1.69-.31,2.99-.92,3.89-.61.9-1.34,1.57-2.19,2.01-.85.44-1.7.69-2.58.74-.87.06-1.57.09-2.1.09-2.04,0-3.76-.36-5.16-1.09-1.4-.73-2.59-1.67-3.59-2.84-.99-1.17-1.85-2.51-2.58-4.02-.73-1.51-1.44-3.09-2.14-4.72h-1.22v12.68h1.22c.17-.47.36-.79.57-.96.2-.17.54-.26,1-.26.53,0,1.25.12,2.19.35.93.23,1.97.51,3.1.83,1.14.32,2.32.6,3.54.83,1.22.23,2.36.35,3.41.35,1.92,0,3.79-.29,5.6-.87,1.81-.58,3.4-1.41,4.77-2.49,1.37-1.08,2.48-2.39,3.32-3.93.85-1.54,1.27-3.28,1.27-5.2,0-2.8-.82-5.1-2.45-6.91-1.63-1.81-4.02-3.27-7.17-4.37Z"/><path class="cls-1" d="m282.36,53.91c-1.55-1.98-3.51-3.63-5.9-4.94-2.39-1.31-5.28-1.97-8.65-1.97-5.07,0-8.51,2.56-10.32,7.69h-.17v-6.47h-16.26v1.22h5.77v59.46h-5.77v1.22h22.38v-1.22h-5.95v-29.47h.18c.82,2.04,2.04,3.79,3.67,5.25,1.63,1.45,3.79,2.19,6.47,2.19,2.85,0,5.45-.55,7.78-1.66,2.33-1.11,4.33-2.58,5.99-4.42,1.66-1.84,2.96-3.95,3.89-6.34.93-2.39,1.4-4.9,1.4-7.52,0-2.04-.36-4.23-1.09-6.56-.73-2.33-1.87-4.49-3.41-6.47Zm-7.52,20.85c-.14,2.31-.47,4.27-.96,5.9-.5,1.63-1.22,2.89-2.19,3.76-.96.87-2.26,1.31-3.89,1.31-2.45,0-4.36-.63-5.73-1.88-1.37-1.25-2.4-2.83-3.1-4.72-.7-1.89-1.12-3.93-1.27-6.12-.15-2.19-.22-4.18-.22-5.99,0-1.92.1-3.99.31-6.21.2-2.21.63-4.25,1.27-6.12.64-1.86,1.6-3.41,2.88-4.64,1.28-1.22,3-1.83,5.16-1.83,1.52,0,2.77.32,3.76.96.99.64,1.81,1.69,2.45,3.15.64,1.46,1.09,3.4,1.36,5.81.26,2.42.39,5.38.39,8.87,0,2.86-.07,5.44-.22,7.74Z"/><path class="cls-1" d="m327.34,49.4c-1.52-1.31-3.5-1.97-5.95-1.97-2.92,0-5.26.8-7.04,2.4-1.78,1.6-3.19,3.51-4.24,5.73h-.17v-7.34h-16.18v1.22h5.68v35.06h-5.68v1.22h23.26v-1.22h-6.91v-22.38c0-1.87.28-3.54.83-5.03.55-1.49,1.21-2.75,1.97-3.8.75-1.05,1.57-1.85,2.45-2.4s1.6-.83,2.19-.83c.52,0,.92.1,1.18.31.26.2.45.44.57.7.11.26.2.63.26,1.09,0,.06-.03.29-.09.7-.06.41-.13.86-.22,1.36-.09.5-.16.96-.22,1.4-.06.44-.09.74-.09.92,0,1.52.55,2.55,1.66,3.11,1.11.55,2.33.83,3.67.83,1.86,0,3.22-.49,4.07-1.48s1.27-2.36,1.27-4.11c0-2.33-.76-4.15-2.27-5.46Z"/><path class="cls-1" d="m373.5,48.22h-16.44v1.22h5.77v22.56c0,1.57-.22,3.09-.66,4.55-.44,1.46-1.05,2.73-1.83,3.8-.79,1.08-1.74,1.94-2.84,2.58-1.11.64-2.33.96-3.67.96-2.21,0-3.76-.77-4.64-2.32-.87-1.54-1.31-3.42-1.31-5.64v-27.72h-16.52v1.22h5.86v25.27c0,4.26,1.08,7.27,3.23,9.05,2.16,1.78,5.28,2.67,9.36,2.67,1.28,0,2.59-.16,3.93-.48,1.34-.32,2.61-.82,3.8-1.49,1.2-.67,2.26-1.49,3.19-2.45.93-.96,1.63-2.08,2.1-3.37h.18v7.08h16.26v-1.22h-5.77v-36.28Z"/><path class="cls-1" d="m420.41,78.08c-.49,1.14-1.24,2.27-2.23,3.41-.99,1.13-2.3,2.13-3.93,2.97s-3.64,1.27-6.03,1.27c-2.51,0-4.49-.58-5.95-1.75-1.46-1.17-2.57-2.68-3.32-4.55-.76-1.86-1.22-3.93-1.4-6.21-.17-2.27-.26-4.55-.26-6.82,0-2.45.1-4.76.31-6.95.2-2.19.64-4.11,1.31-5.77.67-1.66,1.62-2.99,2.84-3.98,1.22-.99,2.88-1.49,4.98-1.49,1.51,0,2.78.33,3.8,1.01,1.02.67,1.53,1.59,1.53,2.75,0,.23-.07.64-.22,1.22-.14.58-.29,1.2-.44,1.84-.15.64-.29,1.25-.44,1.83-.14.58-.22.99-.22,1.22,0,1.57.57,2.61,1.7,3.1,1.14.5,2.38.74,3.71.74,1.81,0,3.21-.39,4.2-1.18.99-.79,1.48-2.14,1.48-4.07,0-1.46-.36-2.78-1.09-3.98-.73-1.19-1.75-2.21-3.06-3.06-1.31-.84-2.87-1.5-4.68-1.97-1.81-.47-3.82-.7-6.03-.7-3.5,0-6.57.64-9.22,1.92-2.65,1.28-4.89,2.9-6.73,4.85-1.83,1.95-3.22,4.09-4.15,6.42-.93,2.33-1.4,4.58-1.4,6.73,0,2.97.42,5.54,1.27,7.69.85,2.16,1.95,3.98,3.32,5.46,1.37,1.49,2.87,2.67,4.5,3.54,1.63.87,3.25,1.56,4.85,2.06,1.6.49,3.09.82,4.46.96,1.37.14,2.43.22,3.19.22,2.8,0,5.11-.38,6.95-1.14,1.83-.76,3.34-1.67,4.5-2.75,1.17-1.08,2.05-2.24,2.67-3.5.61-1.25,1.06-2.4,1.36-3.46l-1.22-.44c-.12.52-.42,1.36-.92,2.49Z"/><path class="cls-1" d="m462.55,78.04c-.5,1.11-1.25,2.23-2.27,3.37-1.02,1.14-2.33,2.14-3.93,3.02-1.6.87-3.57,1.31-5.9,1.31-2.62,0-4.66-.55-6.12-1.66-1.46-1.11-2.57-2.52-3.32-4.24-.76-1.72-1.22-3.64-1.4-5.77-.17-2.13-.26-4.24-.26-6.34v-3.93h25.79c0-2.97-.52-5.52-1.57-7.65-1.05-2.13-2.39-3.86-4.02-5.2-1.63-1.34-3.47-2.33-5.51-2.97-2.04-.64-4.08-.96-6.12-.96-2.86,0-5.52.57-8,1.71-2.48,1.14-4.64,2.62-6.47,4.46-1.84,1.83-3.28,3.95-4.33,6.34-1.05,2.39-1.58,4.84-1.58,7.34,0,3.15.55,5.96,1.66,8.44,1.11,2.48,2.64,4.58,4.59,6.3,1.95,1.72,4.24,3.03,6.86,3.93,2.62.9,5.45,1.36,8.48,1.36,2.56,0,4.75-.36,6.56-1.09,1.81-.73,3.32-1.63,4.55-2.71,1.22-1.08,2.19-2.24,2.89-3.5.7-1.25,1.2-2.43,1.49-3.54l-1.22-.44c-.06.52-.33,1.34-.83,2.45Zm-22.91-20.24c.14-1.66.48-3.2,1.01-4.63.52-1.43,1.32-2.61,2.4-3.54,1.08-.93,2.61-1.4,4.59-1.4,1.4,0,2.49.32,3.28.96.79.64,1.36,1.43,1.7,2.36.35.93.55,1.87.61,2.8.06.93.09,1.72.09,2.36v5.86h-13.99c.06-1.51.16-3.1.31-4.77Z"/><polygon class="cls-1" points="113.84 48.22 97.31 48.22 97.31 49.44 103.17 49.44 103.17 84.5 97.31 84.5 97.31 85.73 119.7 85.73 119.7 84.5 113.84 84.5 113.84 48.22"/><path class="cls-1" d="m139.84,39.48c-.29-.03-.58-.09-.86-.15-3.56-.86-7.16-1.57-10.66-2.64-1.72-.52-3.47-1.44-4.79-2.64-1.05-.96-1.46-2.63-2.18-3.97-1.93-3.61-3.54-7.45-5.88-10.76-3.73-5.29-8.76-9.35-14.05-13.05-.55-.39-1.23-.6-2.29-1.1.37.72.43.96.58,1.11,3.35,3.42,6.76,6.78,10.05,10.26,1.58,1.67,3.11,3.44,4.35,5.37,2.55,3.97,3.35,9.01,7.47,12.02-.08.12-.17.24-.25.36-2.82-1.43-5.64-2.86-8.59-4.35,2.05-3.44,2.38-6.92-.76-9.16-3.08-2.19-6.34-1.15-8.75,2.27-1.55-3.06-3.36-5.67-4.25-8.57-1.34-4.35-3.87-7.8-6.77-11.09-.34-.39-.95-.54-1.67-.93,1.27,5.93,6.44,9.49,6.99,15.41-4.81-5.85-9.63-11.71-14.7-17.88.04,1.03-.04,1.81.12,2.53.88,3.87,3.23,6.75,6.18,9.29,3.36,2.89,6.58,5.94,9.84,8.95.37.34.61.83.91,1.25-8.32-3.58-14.53-9.78-20.87-16.03-.85,2.38-.18,4.29,2.23,6.01,3.47,2.47,7.02,4.83,10.62,7.1,2.88,1.82,5.88,3.45,8.82,5.17-6.45-.84-12.63-2.3-18.2-5.9,0,.72.13,1.25.45,1.54,2.36,2.13,4.91,3.97,8.06,4.77,3.33.84,6.64,1.76,9.98,2.5,1.31.29,2.1.88,2.7,2.09.72,1.42,1.79,2.9,3.63,2.46,2.66-.63,4.34,1.17,6.42,2.02-3.07.36-6.09.61-9.12.65-1.18.01-2.42-.34-3.55-.75-4.38-1.61-8.73-3.33-13.1-4.96-.6-.22-1.29-.22-1.93-.33.11.7.34,1.15.7,1.32,4.56,2.19,9.14,4.35,13.73,6.5.25.12.57.14.86.13,3.08-.04,6.17.05,9.23-.19,3.66-.28,7.26-.39,10.85.6-.31.21-.64.29-.96.35-2.81.52-5.69.79-8.41,1.61-5.07,1.53-10.12,2.81-15.48,2.28-.54-.05-1.12.17-1.68.26-.03.16-.05.32-.08.48.58.34,1.14.91,1.75.97,2.95.27,6,.91,8.86.48,4.93-.75,9.74-2.26,14.63-3.34,2.6-.57,5.35-1.58,7.85-1.18,4.88.78,9.62,2.4,14.49,3.69q-.28-2.65-2.53-2.84Zm-42.6-26.92c-1.57-2.23-3.13-4.46-4.7-6.7.18-.11.36-.22.55-.32,1.47,2.29,2.94,4.57,4.42,6.86-.09.05-.18.11-.27.16Zm-13.54-10.31c2.2,2.99,4.18,5.69,6.16,8.39-3.01-1.96-5.17-4.54-6.16-8.39Zm-4.49,5.22c1.98,1.93,3.6,3.5,5.22,5.08-3.52-1.65-4.18-2.3-5.22-5.08Zm22.98,19.08l-9.53-2.17c.05-.21.1-.43.15-.64,3.17.77,6.33,1.55,9.5,2.32-.04.16-.08.33-.11.49Zm9.09,2.56c-.62-.32-1.16-.6-1.29-.68-.27-1-.26-1.84-.67-2.19-.36-.3-1.2,0-1.82-.05-.09,0-.2-.02-.3-.02-.24.44-.36.91-.21,1.54.06.24.02.46-.05.65.89.47,1.78.94,2.66,1.4-.78.82-1.74,1.71-2.98.83-1.18-.83-2.54-1.76-1.99-3.44.03.02.06.03.09.05-.02-1.11.23-2.32.97-3.06,0,0,0,0,0,0,.82-1.7,3.98-2.66,5.4-1.74,1.85,1.2,2.34,3.74,1.07,5.58-.26.37-.55.71-.87,1.13Zm-7.4,6.71c-2.11,0-4.28-.95-6.32-1.74-2.7-1.05-5.3-2.36-7.86-3.83,2.75.88,5.77,1.31,8.19,2.75,4.3,2.55,8.75,2,13.28,1.76,1.68-.09,3.37-.16,5.06-.18.46,0,.92.2,1.62.36-4.85.34-9.41.89-13.97.88Zm13.95-7.61c-2.27-4.85-4.1-9.93-8.8-13.27-2.09-1.48-3.7-3.64-5.52-5.5l.4-.29c8.86,5.82,14.2,14.31,17.95,24.06-2.15-1.03-3.08-3-4.02-5.01Zm-17.23,13.93c7.86-.3,14.88-5,22.92-4.11-7.74.94-14.92,4.79-22.92,4.11Z"/></g></svg>